<svg width="56" height="56" viewBox="0 0 56 56" fill="none" xmlns="http://www.w3.org/2000/svg">
<path fill-rule="evenodd" clip-rule="evenodd" d="M21.2241 55.1617C36.2278 58.9023 51.4222 49.7735 55.1622 34.7733H55.1621L55.1618 34.7736C58.9022 19.7728 49.773 4.57746 34.7704 0.837856C19.7715 -2.90175 4.57704 6.22773 0.838654 21.2295C-2.90301 36.2284 6.22681 51.4221 21.2241 55.1617ZM34.1887 16.9453C38.0684 18.2815 40.9055 20.2845 40.3482 24.0107L40.3483 24.0104L40.3493 24.0111C39.946 26.7387 38.4337 28.0592 36.4258 28.5222C39.1825 29.9573 40.5854 32.158 39.2491 35.9735C37.5907 40.7124 33.6507 41.1122 28.4107 40.1206L27.1393 45.2164L24.0663 44.4508L25.3213 39.4235C24.5247 39.2256 23.7109 39.0156 22.8724 38.788L21.6132 43.8392L18.5438 43.0736L19.8154 37.9682C19.5201 37.8927 19.2229 37.8153 18.9236 37.7372C18.4952 37.6256 18.0625 37.5128 17.6246 37.403L13.6257 36.4062L15.1513 32.8892C15.1513 32.8892 17.4156 33.4911 17.3848 33.4465C18.2547 33.6619 18.6407 33.0946 18.7928 32.7166L20.8023 24.6613C20.8832 24.6807 20.962 24.7004 21.0378 24.7194C21.068 24.7269 21.0978 24.7344 21.1271 24.7417C21.0045 24.6924 20.8933 24.6609 20.8076 24.6391L22.2413 18.8889C22.2787 18.2361 22.0536 17.4124 20.8093 17.1019C20.8573 17.0697 18.5775 16.5472 18.5775 16.5472L19.3949 13.2655L23.6325 14.3236L23.6289 14.3395C24.266 14.498 24.9226 14.6484 25.5911 14.8006L26.8503 9.75478L29.9213 10.5204L28.6872 15.4674C29.5118 15.6556 30.3414 15.8454 31.1492 16.0468L32.3744 11.1323L35.4473 11.8979L34.1887 16.9453ZM24.4689 35.2458C26.9762 35.9079 32.4561 37.3551 33.3274 33.8546H33.3275C34.22 30.2757 28.9064 29.0834 26.313 28.5014C26.0229 28.4364 25.7669 28.3789 25.5574 28.3266L23.87 35.0903C24.0419 35.133 24.2434 35.1862 24.4689 35.2458ZM26.8332 25.3623C28.9235 25.9201 33.4835 27.1369 34.2777 23.9554H34.278C35.0889 20.7015 30.6573 19.7204 28.4929 19.2413C28.2495 19.1874 28.0347 19.1398 27.8593 19.0961L26.3294 25.2304C26.4738 25.2664 26.6433 25.3116 26.8332 25.3623Z" fill="white" fill-opacity="0.2"/>
</svg>
