<svg width="110" height="33" viewBox="0 0 110 33" fill="none" xmlns="http://www.w3.org/2000/svg">
<path d="M45.8315 13.5035C45.5457 12.4175 44.8455 11.6173 43.4737 11.6173C41.4446 11.6173 40.6015 13.4035 40.6015 15.2183C40.6015 17.033 41.4446 18.8192 43.4737 18.8192C44.9455 18.8192 45.76 17.7189 45.8886 16.3471H47.5034C47.3747 18.6192 45.76 20.1767 43.4737 20.1767C40.6301 20.1767 38.9297 17.919 38.9297 15.2183C38.9297 12.5176 40.6301 10.2598 43.4737 10.2598C45.6029 10.2741 47.289 11.4601 47.4891 13.4892H45.8315V13.5035Z" fill="white" fill-opacity="0.8"/>
<path d="M48.4883 16.5325C48.4883 14.432 49.7458 12.9316 51.9464 12.9316C54.147 12.9316 55.4044 14.4463 55.4044 16.5325C55.4044 18.6331 54.147 20.1478 51.9464 20.1478C49.7458 20.1478 48.4883 18.6331 48.4883 16.5325ZM53.8898 16.5325C53.8898 15.3465 53.2896 14.1176 51.9464 14.1176C50.6032 14.1176 50.003 15.3465 50.003 16.5325C50.003 17.7186 50.6032 18.9618 51.9464 18.9618C53.2896 18.9618 53.8898 17.7186 53.8898 16.5325Z" fill="white" fill-opacity="0.8"/>
<path d="M56.707 10.4883H58.2217V11.9172H56.707V10.4883ZM56.707 13.1033H58.2217V19.9622H56.707V13.1033Z" fill="white" fill-opacity="0.8"/>
<path d="M59.8659 13.1034H61.2948V14.118L61.3234 14.1466C61.7664 13.3892 62.5809 12.9177 63.4525 12.932C64.9386 12.932 65.8818 13.7322 65.8818 15.2611V19.9767H64.3671V15.6612C64.3385 14.5895 63.9098 14.118 63.0239 14.118C62.0236 14.118 61.3663 14.9182 61.3663 15.9185V19.9624H59.8516V13.1034H59.8659Z" fill="white" fill-opacity="0.8"/>
<path d="M75.9549 19.9624H74.8974L74.6402 18.8478C73.7543 19.8481 72.9398 20.191 71.7823 20.191C68.9387 20.191 67.2383 17.9333 67.2383 15.2326C67.2383 12.5318 68.9387 10.2598 71.7823 10.2598C73.8543 10.2598 75.5833 11.3601 75.8406 13.4892H74.2258C74.0687 12.2461 72.9827 11.603 71.7823 11.603C69.7532 11.603 68.8959 13.3892 68.8959 15.204C68.8959 17.0187 69.7532 18.8049 71.7823 18.8049C73.4828 18.8335 74.4116 17.8047 74.4402 16.2042H71.9252V14.9753H75.9549V19.9624Z" fill="white" fill-opacity="0.8"/>
<path d="M78.7256 16.9191C78.7256 17.9908 79.3115 18.9482 80.5689 18.9482C81.4406 18.9482 81.9693 18.5624 82.2408 17.805H83.6698C83.3411 19.3054 82.0693 20.1342 80.5689 20.1342C78.4255 20.1342 77.2109 18.6338 77.2109 16.5333C77.2109 14.5899 78.4827 12.918 80.5261 12.918C82.6838 12.918 84.0127 14.8757 83.7698 16.9191H78.7256ZM82.2551 15.9188C82.1979 14.9614 81.5549 14.104 80.5261 14.104C79.4829 14.104 78.7685 14.9043 78.7256 15.9188H82.2551Z" fill="white" fill-opacity="0.8"/>
<path d="M89.5587 15.4044C89.4444 14.5613 88.8299 14.1183 87.9868 14.1183C87.2009 14.1183 86.1006 14.5327 86.1006 16.619C86.1006 17.7622 86.6008 18.9625 87.9154 18.9625C88.7871 18.9625 89.4015 18.3766 89.5444 17.3906H91.0591C90.7733 19.1625 89.673 20.1485 87.9154 20.1485C85.772 20.1485 84.5859 18.6195 84.5859 16.6047C84.5859 14.5327 85.7148 12.918 87.9726 12.918C89.5587 12.918 90.9162 13.7182 91.0591 15.4044H89.5587Z" fill="white" fill-opacity="0.8"/>
<path d="M92.6445 10.5459H94.1592V15.933L96.9028 13.1609H98.7604L96.1312 15.6758L99.0176 20.0055H97.16L95.0595 16.6761L94.1592 17.5477V20.0055H92.6445V10.5459Z" fill="white" fill-opacity="0.8"/>
<path d="M99.1016 16.5325C99.1016 14.432 100.36 12.9316 102.56 12.9316C104.761 12.9316 106.018 14.4463 106.018 16.5325C106.018 18.6331 104.761 20.1478 102.56 20.1478C100.36 20.1478 99.1016 18.6331 99.1016 16.5325ZM104.518 16.5325C104.518 15.3465 103.918 14.1176 102.56 14.1176C101.203 14.1176 100.617 15.3465 100.617 16.5325C100.617 17.7186 101.217 18.9618 102.56 18.9618C103.903 18.9618 104.518 17.7186 104.518 16.5325Z" fill="white" fill-opacity="0.8"/>
<path d="M30.5434 16.361C30.572 23.8487 24.5275 29.9503 17.0399 29.9789C9.55216 30.0075 3.45056 23.963 3.42198 16.4753C3.3934 8.9877 9.43784 2.8861 16.9255 2.85752C24.4132 2.82894 30.5148 8.87338 30.5434 16.361Z" fill="#8DC63F"/>
<path d="M29.5156 16.3612C29.5442 23.2916 23.957 28.9216 17.0267 28.9645C10.0963 29.0074 4.46619 23.4059 4.43761 16.4755C4.40904 9.5451 9.99622 3.91505 16.9266 3.87218C23.8427 3.8436 29.4871 9.43078 29.5156 16.3612Z" fill="#F9E988"/>
<path d="M17.2109 4.68725C18.0112 4.54436 18.8257 4.54436 19.6259 4.68725C20.4261 4.81586 21.212 5.07307 21.9265 5.45888C22.6409 5.85899 23.2554 6.3877 23.8698 6.88783C24.4843 7.38796 25.0987 7.90238 25.6846 8.45967C26.2848 9.01696 26.7992 9.63141 27.2279 10.3173C27.6708 11.0031 28.0281 11.7319 28.3139 12.4893C28.8569 14.0182 28.9998 15.6615 28.7568 17.2619H28.6711C28.4425 15.733 28.0424 14.2326 27.4994 12.775C27.2421 12.0606 26.9278 11.3604 26.5848 10.6888C26.2133 10.0172 25.8132 9.35991 25.3702 8.73117C24.913 8.08815 24.37 7.53086 23.7269 7.07359C23.0982 6.61633 22.3552 6.33054 21.655 6.04475C20.9548 5.75896 20.2403 5.48747 19.4973 5.27312C18.7542 5.05878 18.0112 4.9016 17.2252 4.74441L17.2109 4.68725Z" fill="white"/>
<path d="M23.3402 11.932C22.4256 11.6605 21.4825 11.289 20.5251 10.9175C20.468 10.6746 20.2536 10.3745 19.8249 10.0172C19.1962 9.47428 18.0245 9.48857 17.0099 9.73149C15.8953 9.47428 14.7808 9.37425 13.7233 9.63146C5.04965 12.0178 9.97952 17.8479 6.79297 23.7066C7.25023 24.6639 12.1229 30.2797 19.1962 28.765C19.1962 28.765 16.7813 22.9635 22.2256 20.1771C26.6553 17.905 29.8561 13.7182 23.3402 11.932Z" fill="#8BC53F"/>
<path d="M24.4104 15.7474C24.4104 16.0332 24.1817 16.2761 23.896 16.2761C23.6102 16.2761 23.3672 16.0475 23.3672 15.7617C23.3672 15.4759 23.5959 15.233 23.8817 15.233C24.1675 15.2187 24.4104 15.4616 24.4104 15.7474Z" fill="white"/>
<path d="M17.0234 9.73127C17.6522 9.77414 19.9385 10.5172 20.5243 10.9173C20.0385 9.48835 18.3809 9.30258 17.0234 9.73127Z" fill="#009345"/>
<path d="M17.624 13.3325C17.624 14.6757 16.538 15.7617 15.1948 15.7617C13.8516 15.7617 12.7656 14.6757 12.7656 13.3325C12.7656 11.9893 13.8516 10.9033 15.1948 10.9033C16.538 10.9033 17.624 11.9893 17.624 13.3325Z" fill="white"/>
<path d="M16.9087 13.3465C16.9087 14.2896 16.1513 15.047 15.2082 15.0613C14.2651 15.0613 13.5078 14.3039 13.5078 13.3608C13.5078 12.4177 14.2651 11.6604 15.2082 11.6604C16.137 11.6461 16.9087 12.4034 16.9087 13.3465Z" fill="#58595B"/>
<path d="M26.3692 16.8191C24.3973 18.2052 22.1681 19.2483 18.9959 19.2483C17.5098 19.2483 17.2097 17.6765 16.238 18.4481C15.7236 18.8482 13.9517 19.7342 12.537 19.677C11.1224 19.6198 8.82177 18.7768 8.17874 15.7617C7.92153 18.7911 7.79293 21.0059 6.66406 23.5637C8.9218 27.179 14.3089 29.9797 19.2102 28.7794C18.6815 25.107 21.8966 21.5203 23.6971 19.677C24.3687 18.9625 25.6976 17.8194 26.3692 16.8191Z" fill="#8BC53F"/>
<path d="M26.3001 16.9045C25.6714 17.4475 24.9712 17.8905 24.2281 18.2335C23.4851 18.5907 22.6992 18.8765 21.8989 19.0765C21.0987 19.2909 20.2557 19.4338 19.4126 19.3623C18.5695 19.2909 17.6978 18.9908 17.1406 18.3621L17.1691 18.3335C17.855 18.7765 18.6552 18.9336 19.4412 18.9622C20.2414 18.9908 21.0416 18.9193 21.8275 18.7622C22.6277 18.5907 23.3993 18.3621 24.1424 18.0477C24.8997 17.7619 25.6142 17.3618 26.2715 16.876L26.3001 16.9045Z" fill="#58595B"/>
</svg>
