<svg width="141" height="25" viewBox="0 0 141 25" fill="none" xmlns="http://www.w3.org/2000/svg">
<g clip-path="url(#clip0_33_1293)">
<path fill-rule="evenodd" clip-rule="evenodd" d="M40.9688 9.25216C40.9688 8.91883 40.7188 8.50216 40.4688 8.3355C39.6354 7.66883 38.5521 7.3355 37.2188 7.41883C34.2188 7.41883 31.7188 9.91883 31.7188 13.0022C31.7188 16.0855 34.2188 18.5855 37.2188 18.5855C38.5521 18.5855 39.8853 18.0855 40.802 17.2522C41.052 17.0855 41.302 16.7522 41.302 16.4189C41.302 15.8355 40.8854 15.4189 40.3854 15.4189C40.2188 15.4189 39.9688 15.5022 39.802 15.5855C39.1353 16.1689 38.302 16.5855 37.302 16.5855C35.302 16.5855 33.9688 15.0022 33.9688 13.0022C33.9688 11.0022 35.302 9.41883 37.302 9.41883C38.1353 9.41883 38.8853 9.66883 39.552 10.1689C39.7187 10.2522 39.8021 10.2522 39.9688 10.2522C40.4688 10.2522 40.9688 9.83549 40.9688 9.25216ZM49.8854 14.5855C49.8854 12.4189 48.1353 10.6689 46.052 10.6689C43.8853 10.6689 42.052 12.4189 42.052 14.5855C42.052 16.7522 43.8853 18.5855 46.052 18.5855C48.1353 18.5855 49.8854 16.7522 49.8854 14.5855ZM47.7188 14.5855C47.7188 15.7522 46.9688 16.5855 46.052 16.5855C45.052 16.5855 44.2188 15.7522 44.2188 14.5855C44.2188 13.4189 45.052 12.6689 46.052 12.6689C46.9688 12.6689 47.7188 13.4189 47.7188 14.5855ZM51.1354 11.8355V17.3355C51.1354 17.9189 51.6354 18.4189 52.2188 18.4189C52.8021 18.4189 53.302 17.9189 53.302 17.3355V11.8355C53.302 11.2522 52.8021 10.7522 52.2188 10.7522C51.6354 10.7522 51.1354 11.2522 51.1354 11.8355ZM52.2188 7.41883C51.5521 7.41883 50.9688 7.91883 50.9688 8.66883C50.9688 9.3355 51.5521 9.91883 52.2188 9.91883C52.8854 9.91883 53.4688 9.3355 53.4688 8.66883C53.4688 8.00216 52.8854 7.41883 52.2188 7.41883ZM57.3854 17.3355V14.3355C57.3854 13.4189 57.8021 12.5855 58.6354 12.5855C60.0521 12.5855 60.1354 13.4189 60.1354 14.3355V17.3355C60.1354 17.9189 60.6354 18.4189 61.2188 18.4189C61.8021 18.4189 62.302 17.9189 62.302 17.3355V14.0855C62.302 12.2522 61.3854 10.6689 59.2188 10.6689C58.5521 10.6689 57.7188 10.7522 56.8854 11.5855C56.8854 11.1689 56.4688 10.7522 56.052 10.7522C55.6353 10.7522 55.2188 11.0855 55.2188 11.5855V17.3355C55.2188 17.9189 55.7188 18.4189 56.302 18.4189C56.8853 18.4189 57.3854 17.9189 57.3854 17.3355ZM68.8021 15.2522C68.9688 15.4189 69.1354 15.5022 69.3854 15.5022C69.5521 15.5022 69.7188 15.3355 69.8021 15.2522L72.3021 12.5022V17.3355C72.3021 17.9189 72.8021 18.4189 73.3854 18.4189C73.9688 18.4189 74.4688 17.9189 74.4688 17.3355V7.75216C74.3853 7.5855 74.2188 7.50216 74.0521 7.50216C73.8854 7.50216 73.7188 7.66883 73.6354 7.75216L69.6354 12.2522C69.5521 12.4189 69.3854 12.5022 69.3021 12.5022C69.2188 12.5022 69.0521 12.4189 68.9688 12.2522L64.9688 7.75216C64.8853 7.66883 64.7188 7.50216 64.5521 7.50216C64.3854 7.50216 64.2188 7.5855 64.1354 7.75216V17.3355C64.1354 17.9189 64.6353 18.4189 65.2188 18.4189C65.8021 18.4189 66.3021 17.9189 66.3021 17.3355V12.5022L68.8021 15.2522ZM81.3854 14.5855C81.3854 15.7522 80.6354 16.5855 79.6354 16.5855C78.7188 16.5855 77.9688 15.6689 77.9688 14.5855C77.9688 13.4189 78.7188 12.6689 79.6354 12.6689C80.5521 12.6689 81.3854 13.4189 81.3854 14.5855ZM81.9688 17.3355V17.5855C81.9688 18.0855 82.3021 18.4189 82.8021 18.3355C83.2188 18.3355 83.6354 18.0022 83.6354 17.5022V11.5022C83.6354 11.0855 83.2188 10.6689 82.8021 10.6689C82.3021 10.6689 81.9688 11.0022 81.9688 11.5022V11.7522C81.0521 10.6689 79.8021 10.5855 79.4688 10.5855C77.3853 10.5855 75.8854 12.3355 75.8854 14.5022C75.8854 16.6689 77.3854 18.5022 79.3854 18.5022C80.2188 18.5022 81.5521 18.1689 81.9688 17.3355ZM89.3021 12.5855H89.5521C90.0521 12.5855 90.4688 12.1689 90.5521 11.6689C90.5521 11.0855 90.0521 10.6689 89.5521 10.6689H89.3021C88.6354 10.6689 88.0521 10.8355 87.2188 11.5855C87.2188 11.1689 86.8021 10.7522 86.3854 10.7522C85.9688 10.7522 85.5521 11.0855 85.5521 11.5855V17.3355C85.5521 17.9189 86.0521 18.4189 86.6354 18.4189C87.2188 18.4189 87.7188 17.9189 87.7188 17.3355V14.3355C87.7188 13.4189 87.9688 12.6689 89.3021 12.5855ZM97.9688 17.3355C97.9688 17.1689 97.8854 17.0022 97.8021 16.8355L95.8021 14.5022L97.7188 12.3355C97.8854 12.1689 97.8854 12.0022 97.8854 11.8355C97.8854 11.2522 97.3854 10.7522 96.8854 10.7522C96.5521 10.7522 96.2188 11.0855 95.9688 11.3355L93.4688 14.0855V8.5855C93.4688 8.00216 92.9688 7.50216 92.3854 7.50216C91.8021 7.50216 91.3021 8.00216 91.3021 8.5855V17.3355C91.3021 17.9189 91.8021 18.4189 92.3854 18.4189C92.9688 18.4189 93.4688 17.9189 93.4688 17.3355V15.0022L95.9688 17.8355C96.2188 18.1689 96.4688 18.4189 96.8854 18.4189C97.4688 18.4189 97.9688 17.9189 97.9688 17.3355ZM100.468 13.9189C100.468 13.0022 101.385 12.6689 101.968 12.6689C102.552 12.6689 103.552 12.9189 103.552 13.9189H100.468ZM100.468 15.2522H104.802C105.302 15.2522 105.635 14.8355 105.552 14.4189C105.552 12.0022 103.968 10.6689 101.885 10.6689C99.3021 10.6689 98.2188 12.5022 98.2188 14.6689C98.2188 17.4189 100.052 18.5855 102.218 18.5855C103.052 18.5855 103.885 18.5022 104.552 18.0022C104.802 17.8355 105.052 17.5855 105.052 17.2522C105.052 16.7522 104.718 16.3355 104.218 16.3355C103.968 16.3355 103.802 16.4189 103.635 16.5022C103.218 16.6689 102.635 16.7522 102.218 16.7522C101.718 16.7522 100.468 16.5022 100.468 15.2522ZM110.218 18.5022H110.802C111.302 18.5022 111.718 18.0855 111.802 17.5855C111.802 17.0022 111.385 16.5855 110.885 16.5855H110.552C109.885 16.5855 109.802 16.3355 109.802 14.8355V12.5855H110.718C111.302 12.5855 111.718 12.0855 111.718 11.5855C111.718 11.0022 111.218 10.5855 110.718 10.5855H109.802V8.5855C109.802 8.00216 109.302 7.50216 108.718 7.50216C108.135 7.50216 107.635 8.00216 107.635 8.5855V10.5855H107.052C106.468 10.5855 106.052 11.0022 106.052 11.5855C106.052 12.0855 106.552 12.5855 107.052 12.5855H107.635V15.2522C107.635 17.7522 108.552 18.5022 110.218 18.5022ZM121.635 9.25216C121.635 8.91883 121.385 8.50216 121.135 8.3355C120.302 7.66883 119.218 7.3355 117.885 7.41883C114.885 7.41883 112.385 9.91883 112.385 13.0022C112.385 16.0855 114.885 18.5855 117.885 18.5855C119.218 18.5855 120.552 18.0855 121.468 17.2522C121.718 17.0855 121.968 16.7522 121.968 16.4189C121.968 15.8355 121.552 15.4189 121.052 15.4189C120.885 15.4189 120.635 15.5022 120.468 15.5855C119.802 16.1689 118.968 16.5855 117.968 16.5855C115.968 16.5855 114.635 15.0022 114.635 13.0022C114.635 11.0022 115.968 9.41883 117.968 9.41883C118.802 9.41883 119.552 9.66883 120.218 10.1689C120.385 10.2522 120.468 10.2522 120.635 10.2522C121.135 10.2522 121.635 9.83549 121.635 9.25216ZM128.385 14.5855C128.385 15.7522 127.635 16.5855 126.635 16.5855C125.635 16.5855 124.885 15.6689 124.968 14.5855C124.968 13.4189 125.718 12.6689 126.635 12.6689C127.552 12.6689 128.385 13.4189 128.385 14.5855ZM128.885 17.3355V17.5855C128.885 18.0855 129.218 18.4189 129.718 18.3355C130.135 18.3355 130.552 18.0022 130.552 17.5022V11.5022C130.552 11.0855 130.135 10.6689 129.718 10.6689C129.218 10.6689 128.885 11.0022 128.885 11.5022V11.7522C127.968 10.6689 126.718 10.5855 126.385 10.5855C124.302 10.5855 122.802 12.3355 122.802 14.5022C122.802 16.6689 124.302 18.5022 126.302 18.5022C127.135 18.5022 128.468 18.1689 128.885 17.3355ZM138.135 14.5855C138.135 15.6689 137.385 16.5855 136.468 16.5855C135.468 16.5855 134.635 15.7522 134.718 14.5855C134.718 13.4189 135.552 12.6689 136.468 12.6689C137.385 12.6689 138.135 13.4189 138.135 14.5855ZM134.635 20.6689V17.9189C135.218 18.3355 136.135 18.5022 136.718 18.5855C138.718 18.5855 140.218 16.7522 140.218 14.5855C140.218 12.4189 138.718 10.6689 136.635 10.6689C135.885 10.6689 134.968 10.8355 134.135 11.6689C134.135 11.1689 133.718 10.7522 133.302 10.7522C132.885 10.7522 132.468 11.0855 132.468 11.5855V20.6689C132.468 21.2522 132.968 21.7522 133.552 21.7522C134.135 21.7522 134.635 21.2522 134.635 20.6689Z" fill="white" fill-opacity="0.8"/>
<path fill-rule="evenodd" clip-rule="evenodd" d="M23.9714 12.419C23.9714 5.75228 18.638 0.418945 12.138 0.418945C5.63802 0.418945 0.304688 5.83562 0.304688 12.419C0.304688 19.0023 5.63802 24.419 12.138 24.419C15.138 24.419 17.9714 23.2523 20.2214 21.169C20.638 20.7523 20.7214 20.0856 20.3047 19.5856C19.888 19.169 19.2214 19.0856 18.8047 19.5023C17.0547 21.169 14.638 22.169 12.2214 22.169C9.38802 22.169 6.80469 20.919 4.97136 18.919L10.0547 10.7523V14.5023C10.0547 16.3356 10.7214 16.919 11.3047 17.0856C11.888 17.2523 12.8047 17.169 13.7214 15.5856L16.4714 11.0856C16.5547 10.919 16.638 10.8356 16.7214 10.669V12.919C16.7214 14.5856 17.388 15.919 18.5547 16.5856C19.638 17.169 20.9714 17.169 22.0547 16.419C23.388 15.8356 24.0547 14.2523 23.9714 12.419ZM19.638 14.8356C19.9714 15.0856 20.4714 15.0023 20.888 14.7523C21.5547 14.3356 21.888 13.5023 21.8047 12.419C21.8047 7.00228 17.4714 2.50228 12.138 2.50228C6.80469 2.50228 2.47136 6.91895 2.47136 12.3356C2.47136 14.0023 2.88802 15.5856 3.63802 17.0023L9.22136 8.00228C9.88802 7.00228 10.5547 6.91895 11.0547 7.08562C11.7214 7.25228 12.138 7.91895 12.138 9.08562V14.0856L14.638 10.0023L14.6457 9.99001C15.0679 9.31443 16.1466 7.58815 17.5547 8.00228C18.388 8.25228 18.888 9.16895 18.888 10.419V13.0856C18.888 13.919 19.138 14.5856 19.638 14.8356Z" fill="#2B6AFF"/>
</g>
<defs>
<clipPath id="clip0_33_1293">
<rect width="141" height="25" fill="white"/>
</clipPath>
</defs>
</svg>
