<svg width="77" height="25" viewBox="0 0 77 25" fill="none" xmlns="http://www.w3.org/2000/svg">
<g clip-path="url(#clip0_33_1316)">
<path d="M55.7022 9.7648C54.1222 9.96119 52.9572 10.8584 52.5287 12.1974C52.2341 13.108 52.2698 13.9739 52.6403 14.8532C53.0777 15.8932 54.0195 16.6341 55.2693 16.9153C55.6308 17.0001 56.5637 17.0046 56.9386 16.9332C58.3892 16.6475 59.4024 15.7459 59.822 14.3801C59.9202 14.0542 59.9336 13.956 59.9336 13.3758C59.9336 12.7955 59.9202 12.6973 59.822 12.3715C59.4069 11.0235 58.4294 10.1353 57.0323 9.84068C56.7422 9.78265 55.9477 9.73802 55.7022 9.7648ZM56.586 11.5368C57.1082 11.6752 57.6037 12.0144 57.8313 12.4117C58.1839 13.0098 58.1705 13.7998 57.8045 14.3711C57.1484 15.4022 55.6487 15.5718 54.7471 14.7148C53.9972 14.0007 53.9704 12.8669 54.6846 12.0948C55.1622 11.5859 55.9209 11.3672 56.586 11.5368Z" fill="white" fill-opacity="0.8"/>
<path d="M63.421 9.7648C61.8409 9.96119 60.676 10.8584 60.2475 12.1974C59.9529 13.108 59.9886 13.9739 60.3591 14.8532C60.7965 15.8932 61.7383 16.6341 62.9881 16.9153C63.3496 17.0001 64.2825 17.0046 64.6574 16.9332C66.108 16.6475 67.1212 15.7459 67.5408 14.3801C67.639 14.0542 67.6523 13.956 67.6523 13.3758C67.6523 12.7955 67.639 12.6973 67.5408 12.3715C67.1257 11.0235 66.1482 10.1353 64.7511 9.84068C64.461 9.78265 63.6665 9.73802 63.421 9.7648ZM64.3091 11.5368C64.8358 11.6752 65.3268 12.0144 65.5544 12.4117C65.9071 13.0098 65.8938 13.7998 65.5278 14.3711C64.8716 15.4022 63.3719 15.5718 62.4703 14.7148C61.7204 14.0007 61.6937 12.8669 62.4078 12.0948C62.8809 11.5859 63.6396 11.3672 64.3091 11.5368Z" fill="white" fill-opacity="0.8"/>
<path d="M73.8232 9.78734C72.9037 9.92124 72.2118 10.5104 71.9887 11.3584C71.7744 12.1574 71.9262 12.9742 72.3547 13.3715C72.6091 13.608 72.9126 13.7464 73.7473 14.0142C74.5552 14.2731 74.7382 14.3847 74.823 14.6569C74.9167 14.9694 74.6846 15.3443 74.332 15.4425C74.1401 15.4961 73.7785 15.4961 73.5375 15.438C73.2741 15.3755 72.801 15.1434 72.6002 14.9694C72.5109 14.8846 72.4082 14.8221 72.3904 14.8221C72.3725 14.8221 72.2699 14.9738 72.1717 15.1613C72.0333 15.4246 71.9887 15.4827 71.9797 15.4113L71.9664 15.322H70.8907H69.8194V12.6171V9.91232H68.9312H68.043V13.3804V16.8485H70.0024H71.9619V16.6566C71.9619 16.5539 71.9708 16.4691 71.9797 16.4691C71.9887 16.4691 72.1494 16.545 72.3368 16.6298C72.9171 16.902 73.2875 16.9824 74.0062 16.9824C74.7069 16.9824 75.0372 16.9199 75.4702 16.7101C75.8139 16.545 76.2781 16.0852 76.4343 15.7639C76.7423 15.1211 76.7869 14.2552 76.528 13.7062C76.4834 13.6036 76.3316 13.4027 76.1888 13.2643C75.8853 12.9608 75.5594 12.7957 74.7248 12.5279C74.3945 12.4252 74.0642 12.3002 73.9883 12.2556C73.7205 12.0904 73.6669 11.7289 73.8767 11.5013C74.2427 11.1085 74.8944 11.1442 75.5728 11.595L75.7067 11.6798L76.0683 10.988C76.2602 10.613 76.4209 10.2961 76.412 10.2917C76.3718 10.2515 75.8674 10.0506 75.5818 9.96141C74.9792 9.77395 74.3454 9.707 73.8232 9.78734Z" fill="white" fill-opacity="0.8"/>
<path d="M23.9219 12.3938V16.9644H25.5377C26.4259 16.9644 27.3543 16.9376 27.5953 16.9108C29.5905 16.6653 31.0634 15.4557 31.5365 13.6793C31.6928 13.0901 31.7285 12.0546 31.6169 11.4386C31.3892 10.2424 30.7688 9.27832 29.8136 8.62666C29.3852 8.33207 29.0013 8.17138 28.3853 8.00177C27.9033 7.87233 27.8274 7.87233 25.9081 7.84555L23.9263 7.82324V12.3938H23.9219ZM27.448 9.68896C28.7022 9.95677 29.5369 11.0057 29.5369 12.3179C29.5324 13.1883 29.2646 13.9382 28.7647 14.4336C28.2693 14.9335 27.5328 15.1745 26.5062 15.179H26.0197V12.3983V9.61754H26.5598C26.8544 9.61754 27.2516 9.65325 27.448 9.68896Z" fill="white" fill-opacity="0.8"/>
<path d="M32.3711 12.399V16.9651L36.2186 16.9606H40.0616L41.0525 15.568C41.6015 14.8093 42.0613 14.1844 42.0747 14.1844C42.097 14.1844 42.5567 14.8093 43.1013 15.577L44.0966 16.9696H45.3464C46.0293 16.9696 46.5917 16.9517 46.5917 16.9383C46.5917 16.9205 45.8552 15.8939 44.967 14.6575L43.3423 12.4079L44.8956 10.2387C45.7525 9.0514 46.4979 8.02926 46.547 7.97124C46.6452 7.87304 46.6452 7.88643 46.6452 8.80144V9.72984H47.5915H48.5377V13.3497V16.9696H49.667H50.7962V13.3497V9.72984L51.8987 9.72091L52.9967 9.70306L52.4076 8.77466L51.8184 7.84626L47.962 7.8418H44.1011L43.1102 9.2344C42.5612 9.99318 42.1014 10.6181 42.088 10.627C42.0702 10.627 41.6105 10.0021 41.0659 9.2344L40.0706 7.8418H36.2275H32.38V12.399H32.3711ZM39.16 10.1137C40.0438 11.3367 40.7669 12.3633 40.7669 12.3945C40.7669 12.4258 40.0438 13.4613 39.1556 14.6932L37.5398 16.9339L37.5219 16.059L37.513 15.1842H35.991H34.4689V14.1576V13.1355H35.7008H36.9328V12.2696V11.4036H35.7008H34.4689V10.511V9.61825H35.991H37.513V8.75234C37.513 8.27475 37.5219 7.88643 37.5353 7.88643C37.5487 7.88643 38.2763 8.89071 39.16 10.1137Z" fill="white" fill-opacity="0.8"/>
<path fill-rule="evenodd" clip-rule="evenodd" d="M7.98517 1.77138C6.55686 2.51677 5.38297 3.14612 5.38743 3.1729C5.38743 3.23985 8.81983 4.97614 8.94034 4.97167C8.99391 4.97167 9.39562 4.78421 9.83304 4.56104L10.6275 4.15486L11.4934 4.60121L12.3593 5.04755L13.7787 4.40928C15.9122 3.44963 16.1354 3.34251 16.0997 3.31127C16.0551 3.26217 15.2873 2.85153 13.2074 1.75799C12.2031 1.2313 11.2301 0.709069 11.0426 0.606409C10.8551 0.499286 10.6766 0.418945 10.6453 0.418945C10.6141 0.418945 9.41347 1.02598 7.98517 1.77138ZM1.714 5.02077L0.223214 5.78849V9.16286C0.223214 11.0197 0.241067 12.5373 0.267848 12.5373C0.290165 12.5373 1.02218 12.2204 1.89701 11.832L3.48153 11.1268V7.56941L4.25372 7.98897C4.85182 8.3148 5.44546 8.63617 6.04356 8.962L7.06122 9.51101L7.51204 9.30569C7.7977 9.17625 8.0789 9.04681 8.3601 8.91737C8.5788 8.81471 9.11442 8.57368 9.55184 8.38175C9.98925 8.18982 10.3909 7.99343 10.449 7.9488C10.5248 7.89077 9.59647 7.37748 7.0166 6.05183C5.07053 5.05202 3.41458 4.23967 3.3387 4.24413C3.26282 4.24859 2.53082 4.59674 1.714 5.02077ZM16.363 5.23502C15.3498 5.69475 14.5196 6.08754 14.5196 6.10985C14.5196 6.13217 15.0731 6.46247 15.7471 6.84186C16.4255 7.22125 16.9745 7.55155 16.9745 7.57833C16.9745 7.60511 16.3764 7.89524 15.6444 8.22107C14.9124 8.55136 13.0645 9.38603 11.5336 10.0779L6.41403 12.3944C5.12409 12.9747 3.96358 13.5014 3.83414 13.5594C1.20517 14.7511 0.477631 15.0814 0.379435 15.1395C0.281238 15.1975 0.258921 15.5278 0.241067 17.1926L0.21875 19.1789L1.54886 19.8573L2.87896 20.5358L4.72684 19.7011C5.74005 19.2414 6.57472 18.8441 6.57472 18.8129C6.57472 18.7816 6.38725 18.6611 6.15961 18.5406C5.93197 18.4201 5.45885 18.1523 5.10624 17.947C4.75809 17.7417 4.40993 17.5542 4.33405 17.5274C4.25817 17.5006 4.19569 17.4605 4.19569 17.4292C4.19569 17.4024 5.00804 17.0141 6.00339 16.5722C7.93161 15.7108 9.40454 15.0457 12.5691 13.613C13.984 12.9747 15.3989 12.3319 16.8183 11.6937C18.0636 11.1313 19.5098 10.4751 20.032 10.2341L20.9827 9.79667L21.005 7.78811L21.0273 5.77956L19.6794 5.09219C18.9384 4.71279 18.3002 4.40035 18.2689 4.40035C18.2332 4.40035 17.3762 4.77974 16.363 5.23502ZM20.6256 12.4837C20.4248 12.5819 20.032 12.7649 19.7508 12.8899C19.4696 13.0148 18.934 13.2559 18.5635 13.4255L17.8895 13.7335L17.8761 15.4965C17.8672 16.4651 17.8315 17.2551 17.7958 17.2507C17.7155 17.2373 16.4523 16.5901 15.1802 15.9072C14.2607 15.4162 14.2027 15.3939 13.9885 15.501C13.8635 15.5635 13.1181 15.8982 12.3325 16.2419C11.547 16.5901 10.8774 16.8936 10.8462 16.9248C10.815 16.9516 12.395 17.8086 14.3634 18.8307L17.9342 20.6875L19.4607 19.8975C20.2998 19.4645 21.014 19.0673 21.0452 19.0182C21.1211 18.9066 21.1121 12.2918 21.0407 12.3007C21.0095 12.3052 20.822 12.3855 20.6256 12.4837ZM12.1718 20.2456C11.9085 20.3572 11.6407 20.4733 11.3774 20.5893C10.5784 20.933 10.7346 20.9464 9.78394 20.4733C9.15013 20.1564 8.87785 20.0626 8.75733 20.1073C8.66807 20.143 7.90483 20.4867 7.05677 20.8705C6.21317 21.2544 5.4901 21.5713 5.45439 21.5713C5.09731 21.5713 5.69095 21.9239 7.96731 23.071L10.6364 24.419L11.7612 23.8655C12.3772 23.562 13.6269 22.9505 14.5286 22.5086C15.4346 22.0667 16.1622 21.6963 16.1488 21.6784C16.1354 21.665 15.3766 21.2767 14.4616 20.8125L12.8012 19.9734L12.1718 20.2456Z" fill="#05A3C9"/>
</g>
<defs>
<clipPath id="clip0_33_1316">
<rect width="77" height="25" fill="white"/>
</clipPath>
</defs>
</svg>
