<svg width="56" height="56" viewBox="0 0 56 56" fill="none" xmlns="http://www.w3.org/2000/svg">
<path d="M18.4927 6.12777C28.9519 6.12408 39.4117 6.12408 49.8722 6.12777C49.8754 10.0154 49.8754 13.9024 49.8722 17.7888C39.4127 17.7925 28.9529 17.7925 18.4927 17.7888C18.4894 13.9011 18.4894 10.0141 18.4927 6.12777Z" fill="white" fill-opacity="0.2"/>
<path d="M6.13812 22.1762C9.51251 22.1561 12.8875 22.1561 16.263 22.1762C16.2805 26.0565 16.2805 29.9375 16.263 33.8191C12.8876 33.8391 9.51266 33.8394 6.13812 33.8201C6.12063 29.9392 6.12063 26.0579 6.13812 22.1762Z" fill="white" fill-opacity="0.2"/>
<path d="M18.5001 22.1759C26.0493 22.1575 33.5981 22.1575 41.1463 22.1759C41.1623 26.0562 41.1623 29.9372 41.1463 33.8188C33.5972 33.8369 26.0485 33.8369 18.5001 33.8188C18.4843 29.9384 18.4843 26.0574 18.5001 22.1759Z" fill="white" fill-opacity="0.2"/>
<path d="M18.5113 38.2279C21.88 38.1858 25.2481 38.1858 28.6156 38.2279C28.6506 42.0991 28.6511 45.9722 28.6172 49.8471C25.2485 49.8853 21.8804 49.8847 18.513 49.8451C18.478 45.9742 18.4774 42.1018 18.5113 38.2279Z" fill="white" fill-opacity="0.2"/>
</svg>
