<svg width="56" height="56" viewBox="0 0 56 56" fill="none" xmlns="http://www.w3.org/2000/svg">
<path d="M14.4143 36.5965C14.6572 36.3394 14.9912 36.1895 15.3454 36.1895H47.4652C48.0521 36.1895 48.3456 36.9393 47.9307 37.3785L41.5857 44.0949C41.3428 44.352 41.0088 44.502 40.6546 44.502H8.53482C7.94788 44.502 7.65441 43.7521 8.06931 43.3129L14.4143 36.5965Z" fill="white" fill-opacity="0.2"/>
<path d="M14.4143 11.659C14.6673 11.4019 15.0013 11.252 15.3454 11.252H47.4652C48.0521 11.252 48.3456 12.0018 47.9307 12.441L41.5857 19.1574C41.3428 19.4145 41.0088 19.5645 40.6546 19.5645H8.53482C7.94788 19.5645 7.65441 18.8146 8.06931 18.3754L14.4143 11.659Z" fill="white" fill-opacity="0.2"/>
<path d="M41.5857 24.3465C41.3428 24.0894 41.0088 23.9395 40.6546 23.9395H8.53482C7.94788 23.9395 7.65441 24.6893 8.06931 25.1285L14.4143 31.8449C14.6572 32.102 14.9912 32.252 15.3454 32.252H47.4652C48.0521 32.252 48.3456 31.5021 47.9307 31.0629L41.5857 24.3465Z" fill="white" fill-opacity="0.2"/>
</svg>
