<svg width="169" height="30" viewBox="0 0 169 30" fill="none" xmlns="http://www.w3.org/2000/svg">
<path d="M38.88 8.04V10.3H35.16V22H32.36V10.3H28.64V8.04H38.88ZM51.223 16.22C51.223 16.62 51.1963 16.98 51.143 17.3H43.043C43.1096 18.1 43.3896 18.7267 43.883 19.18C44.3763 19.6333 44.983 19.86 45.703 19.86C46.743 19.86 47.483 19.4133 47.923 18.52H50.943C50.623 19.5867 50.0096 20.4667 49.103 21.16C48.1963 21.84 47.083 22.18 45.763 22.18C44.6963 22.18 43.7363 21.9467 42.883 21.48C42.043 21 41.383 20.3267 40.903 19.46C40.4363 18.5933 40.203 17.5933 40.203 16.46C40.203 15.3133 40.4363 14.3067 40.903 13.44C41.3696 12.5733 42.023 11.9067 42.863 11.44C43.703 10.9733 44.6696 10.74 45.763 10.74C46.8163 10.74 47.7563 10.9667 48.583 11.42C49.423 11.8733 50.0696 12.52 50.523 13.36C50.9896 14.1867 51.223 15.14 51.223 16.22ZM48.323 15.42C48.3096 14.7 48.0496 14.1267 47.543 13.7C47.0363 13.26 46.4163 13.04 45.683 13.04C44.9896 13.04 44.403 13.2533 43.923 13.68C43.4563 14.0933 43.1696 14.6733 43.063 15.42H48.323ZM56.0667 7.2V22H53.2667V7.2H56.0667ZM69.1331 16.22C69.1331 16.62 69.1065 16.98 69.0531 17.3H60.9531C61.0198 18.1 61.2998 18.7267 61.7931 19.18C62.2865 19.6333 62.8931 19.86 63.6131 19.86C64.6531 19.86 65.3931 19.4133 65.8331 18.52H68.8531C68.5331 19.5867 67.9198 20.4667 67.0131 21.16C66.1065 21.84 64.9931 22.18 63.6731 22.18C62.6065 22.18 61.6465 21.9467 60.7931 21.48C59.9531 21 59.2931 20.3267 58.8131 19.46C58.3465 18.5933 58.1131 17.5933 58.1131 16.46C58.1131 15.3133 58.3465 14.3067 58.8131 13.44C59.2798 12.5733 59.9331 11.9067 60.7731 11.44C61.6131 10.9733 62.5798 10.74 63.6731 10.74C64.7265 10.74 65.6665 10.9667 66.4931 11.42C67.3331 11.8733 67.9798 12.52 68.4331 13.36C68.8998 14.1867 69.1331 15.14 69.1331 16.22ZM66.2331 15.42C66.2198 14.7 65.9598 14.1267 65.4531 13.7C64.9465 13.26 64.3265 13.04 63.5931 13.04C62.8998 13.04 62.3131 13.2533 61.8331 13.68C61.3665 14.0933 61.0798 14.6733 60.9731 15.42H66.2331ZM75.5169 10.74C76.3435 10.74 77.0702 10.9067 77.6969 11.24C78.3235 11.56 78.8169 11.98 79.1769 12.5V10.92H81.9969V22.08C81.9969 23.1067 81.7902 24.02 81.3769 24.82C80.9635 25.6333 80.3435 26.2733 79.5169 26.74C78.6902 27.22 77.6902 27.46 76.5169 27.46C74.9435 27.46 73.6502 27.0933 72.6369 26.36C71.6369 25.6267 71.0702 24.6267 70.9369 23.36H73.7169C73.8635 23.8667 74.1769 24.2667 74.6569 24.56C75.1502 24.8667 75.7435 25.02 76.4369 25.02C77.2502 25.02 77.9102 24.7733 78.4169 24.28C78.9235 23.8 79.1769 23.0667 79.1769 22.08V20.36C78.8169 20.88 78.3169 21.3133 77.6769 21.66C77.0502 22.0067 76.3302 22.18 75.5169 22.18C74.5835 22.18 73.7302 21.94 72.9569 21.46C72.1835 20.98 71.5702 20.3067 71.1169 19.44C70.6769 18.56 70.4569 17.5533 70.4569 16.42C70.4569 15.3 70.6769 14.3067 71.1169 13.44C71.5702 12.5733 72.1769 11.9067 72.9369 11.44C73.7102 10.9733 74.5702 10.74 75.5169 10.74ZM79.1769 16.46C79.1769 15.78 79.0435 15.2 78.7769 14.72C78.5102 14.2267 78.1502 13.8533 77.6969 13.6C77.2435 13.3333 76.7569 13.2 76.2369 13.2C75.7169 13.2 75.2369 13.3267 74.7969 13.58C74.3569 13.8333 73.9969 14.2067 73.7169 14.7C73.4502 15.18 73.3169 15.7533 73.3169 16.42C73.3169 17.0867 73.4502 17.6733 73.7169 18.18C73.9969 18.6733 74.3569 19.0533 74.7969 19.32C75.2502 19.5867 75.7302 19.72 76.2369 19.72C76.7569 19.72 77.2435 19.5933 77.6969 19.34C78.1502 19.0733 78.5102 18.7 78.7769 18.22C79.0435 17.7267 79.1769 17.14 79.1769 16.46ZM87.5316 12.64C87.8916 12.0533 88.3582 11.5933 88.9316 11.26C89.5182 10.9267 90.1849 10.76 90.9316 10.76V13.7H90.1916C89.3116 13.7 88.6449 13.9067 88.1916 14.32C87.7516 14.7333 87.5316 15.4533 87.5316 16.48V22H84.7316V10.92H87.5316V12.64ZM92.0975 16.42C92.0975 15.3 92.3175 14.3067 92.7575 13.44C93.2108 12.5733 93.8175 11.9067 94.5775 11.44C95.3508 10.9733 96.2108 10.74 97.1575 10.74C97.9842 10.74 98.7042 10.9067 99.3175 11.24C99.9442 11.5733 100.444 11.9933 100.818 12.5V10.92H103.638V22H100.818V20.38C100.458 20.9 99.9575 21.3333 99.3175 21.68C98.6908 22.0133 97.9642 22.18 97.1375 22.18C96.2042 22.18 95.3508 21.94 94.5775 21.46C93.8175 20.98 93.2108 20.3067 92.7575 19.44C92.3175 18.56 92.0975 17.5533 92.0975 16.42ZM100.818 16.46C100.818 15.78 100.684 15.2 100.418 14.72C100.151 14.2267 99.7908 13.8533 99.3375 13.6C98.8842 13.3333 98.3975 13.2 97.8775 13.2C97.3575 13.2 96.8775 13.3267 96.4375 13.58C95.9975 13.8333 95.6375 14.2067 95.3575 14.7C95.0908 15.18 94.9575 15.7533 94.9575 16.42C94.9575 17.0867 95.0908 17.6733 95.3575 18.18C95.6375 18.6733 95.9975 19.0533 96.4375 19.32C96.8908 19.5867 97.3708 19.72 97.8775 19.72C98.3975 19.72 98.8842 19.5933 99.3375 19.34C99.7908 19.0733 100.151 18.7 100.418 18.22C100.684 17.7267 100.818 17.14 100.818 16.46ZM120.132 10.76C121.492 10.76 122.586 11.18 123.412 12.02C124.252 12.8467 124.672 14.0067 124.672 15.5V22H121.872V15.88C121.872 15.0133 121.652 14.3533 121.212 13.9C120.772 13.4333 120.172 13.2 119.412 13.2C118.652 13.2 118.046 13.4333 117.592 13.9C117.152 14.3533 116.932 15.0133 116.932 15.88V22H114.132V15.88C114.132 15.0133 113.912 14.3533 113.472 13.9C113.032 13.4333 112.432 13.2 111.672 13.2C110.899 13.2 110.286 13.4333 109.832 13.9C109.392 14.3533 109.172 15.0133 109.172 15.88V22H106.372V10.92H109.172V12.26C109.532 11.7933 109.992 11.4267 110.552 11.16C111.126 10.8933 111.752 10.76 112.432 10.76C113.299 10.76 114.072 10.9467 114.752 11.32C115.432 11.68 115.959 12.2 116.332 12.88C116.692 12.24 117.212 11.7267 117.892 11.34C118.586 10.9533 119.332 10.76 120.132 10.76ZM136.975 8.04C138.442 8.04 139.728 8.32667 140.835 8.9C141.955 9.47333 142.815 10.2933 143.415 11.36C144.028 12.4133 144.335 13.64 144.335 15.04C144.335 16.44 144.028 17.6667 143.415 18.72C142.815 19.76 141.955 20.5667 140.835 21.14C139.728 21.7133 138.442 22 136.975 22H132.095V8.04H136.975ZM136.875 19.62C138.342 19.62 139.475 19.22 140.275 18.42C141.075 17.62 141.475 16.4933 141.475 15.04C141.475 13.5867 141.075 12.4533 140.275 11.64C139.475 10.8133 138.342 10.4 136.875 10.4H134.895V19.62H136.875ZM156.731 16.22C156.731 16.62 156.704 16.98 156.651 17.3H148.551C148.617 18.1 148.897 18.7267 149.391 19.18C149.884 19.6333 150.491 19.86 151.211 19.86C152.251 19.86 152.991 19.4133 153.431 18.52H156.451C156.131 19.5867 155.517 20.4667 154.611 21.16C153.704 21.84 152.591 22.18 151.271 22.18C150.204 22.18 149.244 21.9467 148.391 21.48C147.551 21 146.891 20.3267 146.411 19.46C145.944 18.5933 145.711 17.5933 145.711 16.46C145.711 15.3133 145.944 14.3067 146.411 13.44C146.877 12.5733 147.531 11.9067 148.371 11.44C149.211 10.9733 150.177 10.74 151.271 10.74C152.324 10.74 153.264 10.9667 154.091 11.42C154.931 11.8733 155.577 12.52 156.031 13.36C156.497 14.1867 156.731 15.14 156.731 16.22ZM153.831 15.42C153.817 14.7 153.557 14.1267 153.051 13.7C152.544 13.26 151.924 13.04 151.191 13.04C150.497 13.04 149.911 13.2533 149.431 13.68C148.964 14.0933 148.677 14.6733 148.571 15.42H153.831ZM164.895 22L162.615 18.56L160.595 22H157.595L161.215 16.44L157.555 10.92H160.715L162.975 14.34L165.015 10.92H168.015L164.375 16.44L168.055 22H164.895Z" fill="white"/>
<path fill-rule="evenodd" clip-rule="evenodd" d="M0 3H12V6H16V9H18V21H16V24H12V27H2V6H0V3Z" fill="url(#paint0_linear_33_1328)"/>
<rect x="4" y="10" width="6" height="10" fill="white"/>
<rect x="7" y="11" width="4" height="8" fill="white"/>
<rect x="8" y="12" width="4" height="6" fill="white"/>
<defs>
<linearGradient id="paint0_linear_33_1328" x1="9" y1="3" x2="9" y2="27" gradientUnits="userSpaceOnUse">
<stop stop-color="#AB71F6"/>
<stop offset="1" stop-color="#2818FF"/>
</linearGradient>
</defs>
</svg>
