<svg width="1296" height="1296" viewBox="0 0 1296 1296" fill="none" xmlns="http://www.w3.org/2000/svg">
<circle cx="648" cy="648" r="607" stroke="url(#paint0_linear_33_1953)" stroke-width="2"/>
<g filter="url(#filter0_f_33_1953)">
<circle cx="648" cy="648" r="607.5" stroke="url(#paint1_linear_33_1953)"/>
</g>
<g filter="url(#filter1_f_33_1953)">
<circle cx="648" cy="648" r="607.5" stroke="url(#paint2_linear_33_1953)"/>
</g>
<g filter="url(#filter2_f_33_1953)">
<circle cx="648" cy="648" r="607.5" stroke="url(#paint3_linear_33_1953)"/>
</g>
<g filter="url(#filter3_f_33_1953)">
<circle cx="648" cy="648" r="607.5" stroke="url(#paint4_linear_33_1953)"/>
</g>
<g filter="url(#filter4_f_33_1953)">
<circle cx="648" cy="648" r="607.5" stroke="url(#paint5_linear_33_1953)"/>
</g>
<circle cx="648" cy="648" r="607.5" stroke="#B929FF"/>
<path d="M1143 648C1143 914.731 921.404 1131 648 1131C374.596 1131 153 914.731 153 648C153 381.269 374.596 165 648 165C921.404 165 1143 381.269 1143 648Z" stroke="url(#paint6_linear_33_1953)" stroke-width="2"/>
<path d="M1005 651.5C1005 858.931 845.119 1027 648 1027C450.881 1027 291 858.931 291 651.5C291 444.069 450.881 276 648 276C845.119 276 1005 444.069 1005 651.5Z" stroke="url(#paint7_linear_33_1953)" stroke-width="2"/>
<defs>
<filter id="filter0_f_33_1953" x="0" y="0" width="1296" height="1296" filterUnits="userSpaceOnUse" color-interpolation-filters="sRGB">
<feFlood flood-opacity="0" result="BackgroundImageFix"/>
<feBlend mode="normal" in="SourceGraphic" in2="BackgroundImageFix" result="shape"/>
<feGaussianBlur stdDeviation="20" result="effect1_foregroundBlur_33_1953"/>
</filter>
<filter id="filter1_f_33_1953" x="0" y="0" width="1296" height="1296" filterUnits="userSpaceOnUse" color-interpolation-filters="sRGB">
<feFlood flood-opacity="0" result="BackgroundImageFix"/>
<feBlend mode="normal" in="SourceGraphic" in2="BackgroundImageFix" result="shape"/>
<feGaussianBlur stdDeviation="20" result="effect1_foregroundBlur_33_1953"/>
</filter>
<filter id="filter2_f_33_1953" x="0" y="0" width="1296" height="1296" filterUnits="userSpaceOnUse" color-interpolation-filters="sRGB">
<feFlood flood-opacity="0" result="BackgroundImageFix"/>
<feBlend mode="normal" in="SourceGraphic" in2="BackgroundImageFix" result="shape"/>
<feGaussianBlur stdDeviation="20" result="effect1_foregroundBlur_33_1953"/>
</filter>
<filter id="filter3_f_33_1953" x="0" y="0" width="1296" height="1296" filterUnits="userSpaceOnUse" color-interpolation-filters="sRGB">
<feFlood flood-opacity="0" result="BackgroundImageFix"/>
<feBlend mode="normal" in="SourceGraphic" in2="BackgroundImageFix" result="shape"/>
<feGaussianBlur stdDeviation="20" result="effect1_foregroundBlur_33_1953"/>
</filter>
<filter id="filter4_f_33_1953" x="0" y="0" width="1296" height="1296" filterUnits="userSpaceOnUse" color-interpolation-filters="sRGB">
<feFlood flood-opacity="0" result="BackgroundImageFix"/>
<feBlend mode="normal" in="SourceGraphic" in2="BackgroundImageFix" result="shape"/>
<feGaussianBlur stdDeviation="20" result="effect1_foregroundBlur_33_1953"/>
</filter>
<linearGradient id="paint0_linear_33_1953" x1="1254.87" y1="509.818" x2="9.381" y2="512.665" gradientUnits="userSpaceOnUse">
<stop stop-color="#8A4EF6" stop-opacity="0.5"/>
<stop offset="1" stop-color="#AF04FF" stop-opacity="0.2"/>
</linearGradient>
<linearGradient id="paint1_linear_33_1953" x1="648" y1="40" x2="648" y2="1256" gradientUnits="userSpaceOnUse">
<stop stop-color="white"/>
<stop offset="0.22" stop-opacity="0"/>
</linearGradient>
<linearGradient id="paint2_linear_33_1953" x1="648" y1="40" x2="648" y2="1256" gradientUnits="userSpaceOnUse">
<stop stop-color="white"/>
<stop offset="0.22" stop-opacity="0"/>
</linearGradient>
<linearGradient id="paint3_linear_33_1953" x1="648" y1="40" x2="648" y2="1256" gradientUnits="userSpaceOnUse">
<stop stop-color="white"/>
<stop offset="0.22" stop-opacity="0"/>
</linearGradient>
<linearGradient id="paint4_linear_33_1953" x1="648" y1="40" x2="648" y2="1256" gradientUnits="userSpaceOnUse">
<stop stop-color="white"/>
<stop offset="0.22" stop-opacity="0"/>
</linearGradient>
<linearGradient id="paint5_linear_33_1953" x1="648" y1="40" x2="648" y2="1256" gradientUnits="userSpaceOnUse">
<stop stop-color="white"/>
<stop offset="0.22" stop-opacity="0"/>
</linearGradient>
<linearGradient id="paint6_linear_33_1953" x1="1143.08" y1="538" x2="127.022" y2="540.38" gradientUnits="userSpaceOnUse">
<stop stop-color="#8A4EF6" stop-opacity="0.5"/>
<stop offset="1" stop-color="#AF04FF" stop-opacity="0.2"/>
</linearGradient>
<linearGradient id="paint7_linear_33_1953" x1="1005.33" y1="565.931" x2="271.971" y2="567.526" gradientUnits="userSpaceOnUse">
<stop stop-color="#8A4EF6" stop-opacity="0.5"/>
<stop offset="1" stop-color="#AF04FF" stop-opacity="0.2"/>
</linearGradient>
</defs>
</svg>
